<?xml version="1.0" encoding="UTF-8" standalone="no"?>
<!-- Created with Inkscape (http://www.inkscape.org/) -->

<svg
   xmlns:dc="http://purl.org/dc/elements/1.1/"
   xmlns:cc="http://creativecommons.org/ns#"
   xmlns:rdf="http://www.w3.org/1999/02/22-rdf-syntax-ns#"
   xmlns:svg="http://www.w3.org/2000/svg"
   xmlns="http://www.w3.org/2000/svg"
   xmlns:sodipodi="http://sodipodi.sourceforge.net/DTD/sodipodi-0.dtd"
   xmlns:inkscape="http://www.inkscape.org/namespaces/inkscape"
   id="svg3004"
   version="1.1"
   inkscape:version="0.92.4 (5da689c313, 2019-01-14)"
   width="765"
   height="990"
   xml:space="preserve"
   sodipodi:docname="logo.svg"
   inkscape:export-filename="/home/andornaut/workspace/brightloop.com/resources/logo.png"
   inkscape:export-xdpi="90"
   inkscape:export-ydpi="90"><metadata
     id="metadata3010"><rdf:RDF><cc:Work
         rdf:about=""><dc:format>image/svg+xml</dc:format><dc:type
           rdf:resource="http://purl.org/dc/dcmitype/StillImage" /><dc:title /></cc:Work></rdf:RDF></metadata><defs
     id="defs3008"><clipPath
       clipPathUnits="userSpaceOnUse"
       id="clipPath3018"><path
         d="M 0,792 612,792 612,0 0,0 0,792 z"
         id="path3020" /></clipPath><clipPath
       clipPathUnits="userSpaceOnUse"
       id="clipPath3026"><path
         d="m 73,687.87 116,0 0,-112.87 -116,0 0,112.87 z"
         id="path3028" /></clipPath><clipPath
       clipPathUnits="userSpaceOnUse"
       id="clipPath3062"><path
         d="M 0,792 612,792 612,0 0,0 0,792 z"
         id="path3064" /></clipPath><clipPath
       clipPathUnits="userSpaceOnUse"
       id="clipPath3078"><path
         d="M 0,792 612,792 612,0 0,0 0,792 z"
         id="path3080" /></clipPath></defs><sodipodi:namedview
     pagecolor="#ffffff"
     bordercolor="#666666"
     borderopacity="1"
     objecttolerance="10"
     gridtolerance="10"
     guidetolerance="10"
     inkscape:pageopacity="0"
     inkscape:pageshadow="2"
     inkscape:window-width="1647"
     inkscape:window-height="1392"
     id="namedview3006"
     showgrid="false"
     inkscape:zoom="1.7792103"
     inkscape:cx="408.06089"
     inkscape:cy="768.45904"
     inkscape:window-x="1773"
     inkscape:window-y="28"
     inkscape:window-maximized="1"
     inkscape:current-layer="g3012"
     inkscape:snap-text-baseline="false"
     showguides="true"
     inkscape:guide-bbox="true"
     inkscape:snap-grids="false"
     inkscape:snap-to-guides="true"><sodipodi:guide
       position="437.52512,760.81316"
       orientation="0,1"
       inkscape:locked="false"
       id="guide4632" /><sodipodi:guide
       position="195.45474,824.04641"
       orientation="0,1"
       id="guide4656"
       inkscape:locked="false" /><sodipodi:guide
       position="414.12738,848.63112"
       orientation="0,1"
       id="guide4658"
       inkscape:locked="false" /></sodipodi:namedview><g
     id="g3012"
     inkscape:groupmode="layer"
     inkscape:label="logo"
     transform="matrix(1.25,0,0,-1.25,0,990)"><g
   id="g3014"
   transform="translate(2,3.2)"><g
     id="g3016"
     clip-path="url(#clipPath3018)"><g
       id="g3022"
       style="fill:#ffcf33;fill-opacity:1"
       inkscape:export-xdpi="96"
       inkscape:export-ydpi="96"><g
         id="g3024"
         style="fill:#ffcf33;fill-opacity:1" /><g
         id="g3030"
         style="fill:#ffcf33;fill-opacity:1"><g
           clip-path="url(#clipPath3026)"
           id="g3032"
           style="fill:#ffcf33;fill-opacity:1"><g
             transform="translate(149.8398,687.8701)"
             id="g3034"
             style="fill:#ffcf33;fill-opacity:1"><path
               d="m 0,0 c 22.78,-7.82 39.16,-29.43 39.16,-54.87 0,-32.03 -25.97,-58 -58,-58 -32.03,0 -58,25.97 -58,58 0,23.1 15.17,46.58 39.12,54.87 v -7.47 c -19.74,-7.95 -32.12,-27.83 -32.12,-47.4 0,-28.17 22.83,-51 51,-51 28.17,0 51,22.83 51,51 0,21.5 -13.31,39.9 -32.14,47.4 l -0.03,7.46 z"
               style="fill:#ffcf33;fill-opacity:1;fill-rule:nonzero;stroke:none"
               id="path3036"
               inkscape:connector-curvature="0" /></g></g></g></g><g
       id="g3038"
       transform="translate(112.1201,687.8701)"
       style="fill:none;fill-opacity:1"
       inkscape:export-xdpi="96"
       inkscape:export-ydpi="96"><path
         d="m 0,0 c -23.95,-8.29 -39.12,-31.77 -39.12,-54.87 0,-32.03 25.97,-58 58,-58 32.03,0 58,25.97 58,58 0,25.44 -16.38,47.05 -39.16,54.87"
         style="fill:none;stroke:none;stroke-width:0.5;stroke-linecap:round;stroke-linejoin:round;stroke-miterlimit:4;stroke-dasharray:none;stroke-opacity:0.94117647;fill-opacity:1"
         id="path3040"
         inkscape:connector-curvature="0" /></g><g
       id="g3042"
       transform="translate(149.8599,680.3999)"
       style="stroke:none;stroke-opacity:1;fill:none;fill-opacity:1"
       inkscape:export-xdpi="96"
       inkscape:export-ydpi="96"><path
         d="m 0,0 c 18.83,-7.5 32.14,-25.9 32.14,-47.4 0,-28.17 -22.83,-51 -51,-51 -28.17,0 -51,22.83 -51,51 0,19.57 12.38,39.45 32.12,47.4"
         style="fill:none;stroke:none;stroke-width:0.5;stroke-linecap:round;stroke-linejoin:round;stroke-miterlimit:4;stroke-dasharray:none;stroke-opacity:1;fill-opacity:1"
         id="path3044"
         inkscape:connector-curvature="0" /></g><g
       id="g3046"
       transform="translate(112.1201,687.8701)"
       style="fill:#fbcc4a;fill-opacity:1" /></g></g><text
   transform="scale(0.9869937,-1.0131777)"
   id="text3054"
   style="font-size:91.37837219px;line-height:0%;stroke-width:7.61486387;fill:#ffcf33;fill-opacity:1;"
   inkscape:export-xdpi="96"
   inkscape:export-ydpi="96"
   x="196.46948"
   y="-600.64294"><tspan
     sodipodi:role="line"
     id="tspan4650"
     x="196.46948"
     y="-600.64294"
     style="stroke-width:7.61486387;fill:#ffcf33;fill-opacity:1;">right</tspan></text>


<g
   id="g3058"
   transform="translate(1.6,0)"><g
     id="g3060"
     clip-path="url(#clipPath3062)"><g
       id="g3066"
       transform="translate(136.5957,690.7334)" /></g></g><text
   transform="scale(1,-1)"
   id="text3070"
   style="font-size:34.99866867px;line-height:0%;stroke-width:2.91655564"
   inkscape:export-xdpi="96"
   inkscape:export-ydpi="96"
   x="122.54922"
   y="-609.5611"><tspan
     style="font-style:normal;font-variant:normal;font-weight:normal;font-stretch:normal;font-size:93.32978058px;font-family:'Liberation Sans';-inkscape-font-specification:'Liberation Sans, Normal';font-variant-ligatures:normal;font-variant-caps:normal;font-variant-numeric:normal;font-feature-settings:normal;text-align:start;writing-mode:lr-tb;text-anchor:start;fill:#fbcc4a;fill-opacity:1;fill-rule:nonzero;stroke:none;stroke-width:2.91655564"
     x="122.54922"
     y="-609.5611"
     id="tspan3072">b</tspan></text>


<path
   style="fill:#fbcc4a;fill-opacity:1;stroke:#fbcc4a;stroke-width:0.75395894;stroke-miterlimit:4;stroke-dasharray:none;stroke-opacity:1"
   d="m 136.62644,677.19273 0.009,14.76827 c -1.68871,0.25514 -2.1355,0.28214 -3.87835,0.28136 -1.46157,-10e-4 -2.16661,0.007 -3.57568,-0.20263 l 0.0125,-14.85539"
   id="path3268"
   inkscape:connector-curvature="0"
   sodipodi:nodetypes="ccccc"
   inkscape:export-xdpi="96"
   inkscape:export-ydpi="96" /><text
   xml:space="preserve"
   style="font-style:normal;font-weight:normal;font-size:92.42482758px;line-height:125%;font-family:sans-serif;letter-spacing:0px;word-spacing:0px;fill:#000000;fill-opacity:1;stroke:none;stroke-width:2.31062102px;stroke-linecap:butt;stroke-linejoin:miter;stroke-opacity:1"
   x="407.30057"
   y="-608.56781"
   id="text4654"
   transform="scale(1,-1)"><tspan
     sodipodi:role="line"
     id="tspan4652"
     x="407.30057"
     y="-608.56781"
     style="stroke-width:2.31062102px;fill:#5c8eae;fill-opacity:1">loop</tspan></text>
</g></svg>